# xmcd
# 
# Track frame offsets:
#     150
#     13116
#     29394
#     49802
#     64633
#     81626
#     97046
#     118129
#     133867
#     147302
#     164015
#     180451
#     197337
#     212959
# 
# Disc length: 3077
# 
# Revision: 3
# Processed by: cddbd v1.5.2PL0 Copyright (c) Steve Scherf et al.
# Submitted via: fre:ac v1.0.27
# 
DISCID=d30c030e
DTITLE=Various Artist - Rec 51
DYEAR=0
DGENRE=Top 40
TTITLE0=Eric Prydz - Pjanoo
TTITLE1=Fairground Attraction - Perfect
TTITLE2=The Four Tops - Loco In Acapulco
TTITLE3=Ginger Ninja - Sunshine
TTITLE4=Gipsy Kings - Baila Me
TTITLE5=Gipsy Kings - Bamboleo
TTITLE6=Gloria Estefan - Mi Tierra
TTITLE7=The Goodmen - Give It Up
TTITLE8=G'race - Manhattan
TTITLE9=Ict - Lasciatti Tentare
TTITLE10=Ingrid - Tu Es Foutu (Original Radio Edit)
TTITLE11=Inna - Sun Is Up
TTITLE12=Inner Circle - Games People Play
TTITLE13=Jennifer Lopez - Let's Get Loud
EXTD=OTS
EXTT0=
EXTT1=
EXTT2=
EXTT3=
EXTT4=
EXTT5=
EXTT6=
EXTT7=
EXTT8=
EXTT9=
EXTT10=
EXTT11=
EXTT12=
EXTT13=
PLAYORDER=
